# xmcd
#
# Track frame offsets:
#	150
#	14641
#	26488
#	37438
#	49634
#	57256
#	69014
#	72633
#	84033
#	95602
#
# Disc length: 1444 seconds
#
# Revision: 1
# Processed by: cddbd v1.5.2PL0 Copyright (c) Steve Scherf et al.
# Submitted via: audiograbber 1.83.01
#
DISCID=8305a20a
DTITLE=Andrea Wehner - Für Dich - denn ich bin dein Freund
DYEAR=2009
DGENRE=Chanson
TTITLE0=Frei - allein
TTITLE1=Sunny Day
TTITLE2=Halt mich noch mal fest
TTITLE3=Den Weg den du jetzt gehst
TTITLE4=Sag mir
TTITLE5=Jahre
TTITLE6=Gitarrenklänge
TTITLE7=Es ist gut
TTITLE8=Sommer auf dem Land
TTITLE9=Für Dich-denn ich bin Dein Freund
EXTD=
EXTT0=
EXTT1=
EXTT2=
EXTT3=
EXTT4=
EXTT5=
EXTT6=
EXTT7=
EXTT8=
EXTT9=
PLAYORDER=
